<?xml version="1.0" encoding="UTF-8"?>
<!DOCTYPE svg PUBLIC "-//W3C//DTD SVG 1.1//EN" "http://www.w3.org/Graphics/SVG/1.1/DTD/svg11.dtd">
<!-- Creator: CorelDRAW X7 -->
<svg xmlns="http://www.w3.org/2000/svg" xml:space="preserve" width="7.16in" height="1.419in" version="1.1" style="shape-rendering:geometricPrecision; text-rendering:geometricPrecision; image-rendering:optimizeQuality; fill-rule:evenodd; clip-rule:evenodd"
viewBox="0 0 7160 1419"
 xmlns:xlink="http://www.w3.org/1999/xlink">
 <defs>
  <style type="text/css">
   <![CDATA[
    .str0 {stroke:#141515;stroke-width:7.87402;stroke-linecap:round;stroke-linejoin:round}
    .fil2 {fill:none}
    .fil3 {fill:#FEFEFE}
    .fil6 {fill:#2B2A29}
    .fil0 {fill:#22201E}
    .fil1 {fill:#8ABE2E}
    .fil4 {fill:black}
    .fil5 {fill:#FEFEFE}
   ]]>
  </style>
 </defs>
 <g id="Layer_x0020_1">
  <metadata id="CorelCorpID_0Corel-Layer"/>
  <g id="_2156731172064">
   <path class="fil0" d="M161 1116c5,6 1,-4 6,7l0 -6c1,-24 -10,-29 -1,-55 21,-57 -14,-77 -17,-95 -1,-6 7,-35 5,-54 31,7 49,15 86,15 0,27 -3,36 12,54 20,24 13,18 17,49 3,21 4,8 5,17l0 3 -1 1c-2,6 -9,12 -4,18 2,2 -1,3 7,1l3 0 5 -2c0,-1 1,-1 2,-2 9,-19 19,-48 9,-74 -6,-13 -32,-47 -16,-64 5,-5 13,-4 30,-6l81 -16c-15,68 25,55 23,92 -2,24 -9,26 2,49 13,25 10,24 15,37l2 4c2,-22 3,-26 -2,-47 -6,-20 1,-19 3,-40 5,-47 -18,-50 -19,-77 -2,-35 25,-37 49,-49l57 -37c60,88 52,234 2,330 -24,47 -54,84 -87,117 -37,39 -110,121 -123,133l930 0 -130 -140c-10,-8 -20,-18 -30,-25 -32,-24 -51,-44 -74,-85 -25,-43 -49,-101 -44,-170 3,-55 30,-127 60,-153 15,14 21,21 40,35 14,10 30,20 42,32 1,35 -24,50 -4,95 19,43 5,30 0,94 57,-84 12,-82 24,-130 5,-20 8,-20 8,-44 16,6 30,13 47,19 14,5 41,9 52,15 14,36 -29,69 -9,133 8,26 21,29 17,60 -3,27 -6,44 -4,75 14,-52 35,-76 17,-135 -11,-34 -9,-37 6,-65 12,-22 10,-41 11,-69 37,0 58,-9 90,-13 -4,32 3,30 4,52 1,14 -7,26 -6,46 1,25 14,22 16,40 2,15 -7,27 -9,43 7,-13 18,-20 18,-40 -1,-20 -12,-31 -12,-46 -1,-19 11,-29 14,-44 6,-32 -17,-52 16,-68 181,-86 167,-360 41,-432 7,-38 18,-61 10,-109 -6,-28 -25,-64 -38,-81 -9,-11 -49,-42 -67,-50 -40,-18 -66,-8 -102,-16 -14,-37 -24,-113 -83,-140 -68,-30 -129,-5 -183,11 -30,-47 -18,-42 -71,-80 -112,-84 -259,5 -293,83 -24,-5 -84,-55 -180,-6 -34,17 -63,54 -76,90 -6,11 -9,32 -14,42 -61,2 -107,-5 -163,58 -46,51 -45,88 -43,171 -81,25 -179,188 -124,321 12,29 30,54 49,69 48,39 59,28 59,57 0,20 -5,40 4,58 7,14 20,17 21,37 2,18 -4,38 -1,59 2,16 10,30 13,43zm636 -814l-8 0c-10,46 -34,91 -54,128 -50,91 -95,132 -178,188 -17,12 -38,22 -57,34 -10,6 -18,9 -29,16 -17,8 -14,8 -35,6 22,-5 33,-11 34,-36 0,-20 -7,-39 -15,-53 -41,-77 -152,-90 -104,21 17,40 33,45 67,66 -61,2 -119,4 -171,25 -83,35 -76,52 -113,79 -43,-34 -53,-102 -26,-163 24,-55 51,-92 121,-92 -10,-32 -21,-49 -12,-93 6,-28 24,-55 40,-67 58,-46 109,-31 163,-17 3,-36 4,-65 15,-96 23,-63 73,-89 136,-72 36,9 44,30 57,47 4,-7 6,-20 10,-28 43,-89 163,-174 262,-74 43,44 36,95 39,107 8,2 9,-3 15,-10 8,-10 7,-8 16,-14 40,-28 79,-49 138,-26 26,10 50,34 60,62 5,15 8,36 8,52 1,11 0,19 -2,29l-3 21c2,1 0,1 6,-2 50,-23 124,-13 162,23 21,21 29,49 26,90 -1,39 -17,58 -29,82 48,19 70,47 91,96 14,34 18,79 4,118 -7,18 -7,23 -18,29 -32,-44 -114,-77 -186,-86 -60,-9 -94,2 -124,-12 -80,-38 -100,-58 -164,-109 -24,-18 -46,-46 -64,-73 -38,-49 -74,-131 -78,-196zm-184 432c16,-26 28,-30 54,-74 16,-28 30,-54 47,-85 27,-48 59,-125 74,-186 15,87 18,117 59,202 34,69 30,66 72,121 9,12 18,27 28,38 -6,8 -21,17 -29,26 -57,51 -97,105 -124,181 -6,15 -11,30 -15,47l-12 37c0,1 -1,2 -1,2 -2,4 -2,4 -4,6 -17,-71 -21,-119 -50,-182 -45,-93 -87,-113 -99,-133zm-469 54c4,-10 18,-19 29,-26 66,-34 139,-32 211,-15l70 31c-59,26 -76,42 -152,49 -83,8 -102,-6 -158,-39zm953 -10c34,-29 103,-40 160,-35 106,11 103,30 152,45 -17,43 -93,81 -162,68 -41,-8 -89,-28 -122,-51 -26,-18 -18,-19 -28,-27z"/>
   <path class="fil1" d="M206 393l99 -65 84 7 43 -115 67 -40 122 -19c-20,43 54,-34 54,-34l84 -47 112 16 42 53 31 70 83 -49 109 14 38 57 16 79 114 13 51 68 21 58 -4 70 85 112 -12 130 -109 130 -180 40 -59 -63 -77 -73 -41 -91 -24 136 -108 180 -79 98 -55 -88 -116 -152 -68 -123 -97 108 -264 28 -52 -57 -38 -89 18 -115 47 -69 48 -38 22 -53 -7 -87z"/>
   <path class="fil2 str0" d="M206 393l99 -65 84 7 43 -115 67 -40 122 -19c-20,43 54,-34 54,-34l84 -47 112 16 42 53 31 70 83 -49 109 14 38 57 16 79 114 13 51 68 21 58 -4 70 85 112 -12 130 -109 130 -180 40 -59 -63 -77 -73 -41 -91 -24 136 -108 180 -79 98 -55 -88 -116 -152 -68 -123 -97 108 -264 28 -52 -57 -38 -89 18 -115 47 -69 48 -38 22 -53 -7 -87z"/>
   <path class="fil0" d="M1093 777c1,1 2,2 3,4 5,5 12,11 17,15 32,23 76,41 114,48 31,6 64,1 92,-11 19,-9 41,-24 52,-42 -16,-7 -29,-15 -44,-22 -28,-13 -62,-17 -92,-19 -41,-5 -106,1 -142,27zm-914 6c53,32 70,39 140,33 26,-2 52,-7 77,-17 17,-6 34,-16 52,-23l-53 -23c-66,-17 -134,-19 -195,13 -8,5 -16,10 -21,17zm448 -51c3,4 7,8 10,11 7,8 15,15 22,22 25,29 44,60 60,94 24,54 33,103 44,157l6 -23c5,-14 10,-30 15,-46 25,-72 64,-127 121,-180 6,-6 17,-12 23,-20 -8,-9 -15,-21 -23,-31 -13,-18 -27,-36 -38,-55 -11,-21 -21,-44 -31,-65 -15,-32 -30,-64 -38,-100 -6,-21 -10,-44 -14,-66 -16,52 -39,107 -63,151 -15,28 -29,55 -45,82 -9,17 -18,31 -31,45 -6,8 -12,15 -18,24zm-469 32c12,-10 21,-21 33,-32 21,-19 48,-32 73,-42 44,-19 93,-23 142,-25 -21,-13 -34,-24 -46,-55 -50,-116 69,-112 113,-26 8,16 16,35 15,55 0,8 -1,14 -3,18 7,-3 14,-6 21,-11 17,-11 36,-22 54,-33 79,-54 122,-95 168,-181 21,-39 43,-80 51,-123l2 -6 20 0 0 6c4,62 37,140 74,189 17,23 37,52 59,70 25,20 49,40 74,58 26,18 54,33 83,47 15,6 31,7 45,7 26,0 48,0 72,3 57,8 141,35 178,82 6,-5 7,-12 10,-21 11,-34 9,-76 -4,-110 -18,-44 -38,-70 -83,-89l-8 -2 3 -8c15,-29 27,-43 29,-78 1,-29 -1,-60 -24,-82 -35,-33 -103,-41 -146,-21 -6,2 -6,5 -12,2l-6 -1 4 -27c2,-9 2,-18 2,-26 -1,-16 -3,-35 -8,-50 -9,-24 -30,-46 -53,-55 -50,-20 -84,-6 -125,24 -7,5 -8,5 -14,12 -7,8 -9,16 -22,13l-5 -1 -1 -5c-1,-4 -1,-12 -1,-17 0,-7 -1,-16 -3,-24 -4,-23 -15,-43 -32,-60 -38,-40 -86,-53 -136,-31 -44,18 -81,59 -102,101 -5,9 -6,19 -10,28l-5 11 -7 -10c-17,-22 -23,-36 -52,-43 -58,-16 -101,10 -121,66 -11,29 -11,60 -14,91l-1 10 -8 -2c-58,-16 -99,-26 -150,14 -18,14 -31,40 -36,61 -7,39 1,53 12,88l3 10 -10 0c-63,-1 -86,32 -109,84 -20,45 -21,111 17,147zm458 -644c22,-43 70,-80 115,-97 59,-24 124,-21 176,19 14,11 33,24 43,38 9,11 16,25 23,38 61,-18 113,-37 175,-9 30,14 48,39 61,69 9,23 13,46 21,68 33,7 59,-1 95,15 17,8 57,38 68,52 17,21 33,56 38,82 8,45 -1,66 -8,104 68,42 93,136 90,211 -4,93 -49,180 -135,222 -9,5 -14,9 -14,20 2,15 6,25 4,40 -4,16 -15,27 -15,41 1,14 11,27 12,46 0,23 -9,26 -17,43l-17 31 2 -36c1,-13 9,-28 8,-41 -1,-6 -3,-7 -6,-12 -6,-9 -8,-17 -8,-26 -2,-10 1,-18 3,-27 1,-6 3,-12 2,-19 0,-7 -2,-12 -3,-20 -2,-7 -2,-14 -1,-22 -25,5 -47,10 -72,12 0,22 1,42 -10,63 -15,27 -15,28 -7,58 18,60 -1,82 -14,135l-12 46 -3 -47c-2,-26 0,-47 3,-73 3,-28 -8,-32 -17,-56 -8,-28 -6,-53 3,-80 5,-15 12,-32 8,-47 -11,-5 -34,-9 -47,-13 -11,-4 -23,-10 -35,-16 -1,14 -4,19 -8,35 -5,20 2,27 6,46 4,30 -15,59 -30,82l-16 25 3 -29c1,-12 2,-24 4,-36 1,-6 3,-12 4,-17 2,-12 -4,-24 -8,-34 -9,-19 -11,-36 -6,-56 4,-12 9,-24 10,-38 -12,-10 -25,-20 -38,-28 -14,-9 -23,-19 -34,-29 -29,30 -48,100 -50,139 -4,58 13,112 42,162 20,35 37,56 68,81 10,8 19,16 29,24l1 0 137 150 -927 0 12 -13c18,-17 33,-37 50,-56 22,-24 45,-49 69,-73 32,-35 59,-71 82,-113 44,-87 54,-223 2,-309l-50 32c-21,12 -44,12 -43,42 1,11 6,18 11,27 8,16 9,32 8,50 -2,15 -8,20 -4,35 6,21 5,28 3,50l-2 26 -15 -28c-1,-6 -3,-10 -4,-15 -2,-7 -6,-15 -9,-21 -12,-25 -6,-27 -4,-52 2,-28 -31,-25 -24,-80l-67 13 0 1c-5,0 -21,0 -24,4 -11,11 12,42 17,54 10,25 2,55 -9,78l-1 2 -2 1c-1,1 -2,2 -3,2l-5 3c-1,0 -2,0 -4,1 -6,1 -11,1 -14,-5 -9,-10 0,-17 4,-24 -4,-4 -5,-12 -5,-17 -5,-27 3,-22 -15,-44 -15,-19 -14,-31 -14,-51 -26,-1 -43,-6 -67,-12 0,7 -1,15 -2,22 0,5 -3,17 -2,20 1,6 12,23 16,30 9,22 8,43 0,65 -9,24 2,31 2,53l0 1 -7 30 -9 -23c0,0 0,-1 -1,-1 -1,-1 -2,-2 -3,-3l-1 -1 -1 -2c-4,-15 -11,-27 -13,-43 -2,-21 3,-39 2,-58 -2,-16 -15,-20 -20,-34 -9,-21 -4,-38 -4,-60 0,-9 -1,-12 -8,-17 -17,-11 -31,-19 -47,-32 -22,-19 -39,-45 -49,-71 -26,-65 -17,-139 11,-202 20,-44 59,-101 108,-120 -2,-67 -6,-111 43,-167 51,-59 89,-56 157,-59 5,-10 7,-25 11,-36 14,-36 42,-74 77,-92 36,-19 76,-26 117,-17 13,3 26,7 38,13 4,2 11,5 16,7z"/>
   <path class="fil3" d="M184 1106c5,5 1,-3 5,6l1 -5c1,-23 -10,-28 -1,-55 20,-55 -12,-73 -16,-91 -1,-6 6,-34 5,-54 29,8 46,15 82,15 0,26 -2,35 11,53 20,24 13,16 17,48 3,21 4,6 5,16l0 4 -1 1c-2,4 -9,11 -4,17 1,2 -1,3 6,2 1,-1 2,-1 4,-1l4 -2 2 -2c9,-19 19,-48 9,-73 -5,-13 -30,-45 -17,-61 7,-6 14,-4 30,-7l78 -15c-14,65 24,54 22,89 -1,23 -9,26 3,49 11,24 8,23 14,35l2 5c2,-22 3,-26 -2,-47 -7,-20 1,-19 3,-39 4,-46 -17,-48 -19,-75 -2,-34 24,-36 47,-49l56 -35c57,87 49,229 1,322 -23,47 -53,82 -83,115 -36,37 -106,117 -118,129l892 0 -126 -136c-10,-8 -19,-17 -28,-25 -31,-23 -48,-43 -72,-83 -24,-42 -46,-98 -42,-166 4,-53 30,-125 58,-149 14,13 20,21 38,34 15,10 30,20 41,31 1,35 -24,50 -4,94 18,42 4,28 0,90 55,-82 12,-80 23,-126 4,-19 8,-19 7,-43 16,5 29,13 47,19 12,4 39,8 49,15 14,34 -28,67 -9,130 8,24 20,27 16,58 -2,26 -5,43 -3,73 13,-50 33,-73 16,-131 -11,-35 -8,-38 5,-64 12,-22 10,-40 12,-67 34,-2 54,-9 86,-13 -4,30 2,29 3,49 1,15 -6,27 -5,46 1,25 13,22 15,39 2,14 -8,27 -8,41 7,-11 17,-17 17,-38 -1,-19 -13,-30 -13,-46 0,-17 12,-26 14,-42 6,-31 -17,-50 16,-65 173,-85 161,-353 40,-422 5,-38 17,-60 8,-108 -4,-27 -23,-62 -35,-78 -9,-12 -47,-41 -66,-50 -39,-17 -62,-6 -97,-16 -13,-35 -22,-109 -80,-135 -64,-30 -123,-5 -175,9 -28,-44 -18,-40 -68,-78 -107,-81 -249,6 -282,81 -23,-5 -80,-52 -172,-5 -33,17 -60,54 -74,87 -4,13 -7,32 -12,41 -59,4 -103,-4 -157,57 -44,52 -43,87 -41,167 -78,26 -171,184 -119,314 12,29 29,53 48,68 45,38 56,28 56,55 0,19 -5,38 3,57 7,14 19,17 21,36 2,18 -4,37 -2,58 2,16 10,28 13,42zm610 -796l-7 0c-9,46 -32,91 -52,126 -48,89 -92,130 -171,183 -16,12 -36,22 -54,34 -10,5 -18,9 -29,15 -15,8 -12,8 -32,6 21,-5 30,-10 31,-35 0,-20 -6,-38 -14,-52 -39,-75 -145,-88 -100,21 17,39 32,44 66,64 -59,2 -116,4 -165,25 -80,33 -73,50 -109,77 -40,-33 -51,-100 -24,-160 23,-53 48,-89 116,-89 -10,-32 -21,-49 -12,-91 6,-28 23,-53 38,-66 57,-44 105,-30 157,-16 2,-35 3,-64 14,-94 23,-61 70,-87 130,-71 35,10 42,30 55,46 3,-7 6,-18 10,-27 41,-86 157,-169 250,-72 42,44 36,92 38,105 9,2 9,-3 15,-11 7,-8 7,-7 16,-13 38,-28 75,-48 131,-26 25,11 48,34 58,61 5,15 8,35 8,52 0,9 0,18 -2,27l-3 20c2,1 0,1 6,-2 48,-22 119,-12 155,23 21,20 28,48 26,88 -2,38 -18,57 -28,80 46,19 67,47 87,93 14,34 17,78 3,116 -6,18 -6,23 -18,29 -29,-44 -108,-76 -177,-85 -58,-8 -90,3 -119,-12 -77,-37 -96,-56 -158,-105 -23,-19 -43,-46 -62,-71 -35,-49 -70,-129 -74,-193zm-176 423c15,-27 27,-30 52,-73 15,-27 29,-52 45,-83 25,-47 57,-122 71,-182 15,85 17,114 57,198 32,67 28,64 68,118 10,12 17,26 28,36 -7,9 -20,18 -29,26 -54,50 -93,104 -118,177 -6,15 -11,30 -15,46l-11 36c-1,1 -1,1 -1,2 -3,5 -2,5 -4,7 -16,-70 -20,-117 -48,-179 -42,-90 -83,-110 -95,-129zm-450 52c4,-10 17,-20 28,-25 63,-34 133,-31 201,-14l69 29c-57,26 -73,42 -147,48 -79,8 -97,-5 -151,-38zm915 -9c32,-29 98,-40 153,-35 102,11 99,30 145,44 -16,42 -88,80 -155,67 -39,-8 -86,-27 -117,-50 -24,-18 -18,-19 -26,-26z"/>
   <path class="fil4" d="M1240 547c-9,31 -35,59 -63,77 -21,12 -59,28 -78,2 -18,-25 3,-65 18,-87 17,-24 51,-41 80,-43 34,-2 54,15 43,51z"/>
   <path class="fil5" d="M1234 544c20,-65 -80,-47 -112,-1 -50,71 -14,116 52,76 24,-16 50,-44 60,-75z"/>
   <path class="fil1" d="M7089 263l0 251c-20,-43 -34,-72 -43,-88 -9,-14 -22,-30 -39,-46 -38,-38 -91,-57 -158,-57 -152,0 -228,108 -228,324 0,108 19,193 58,254 38,62 92,92 162,92l32 -6 0 -237c0,-37 -3,-63 -8,-74 -6,-11 -21,-28 -46,-48l339 0c-22,22 -34,38 -39,51 -5,13 -7,36 -7,71l0 40 0 141 0 6 0 43 13 31 -65 20c-99,28 -187,42 -266,42 -129,0 -232,-37 -309,-109 -77,-73 -115,-171 -115,-294 0,-121 38,-224 115,-305 77,-82 173,-123 290,-123 39,0 78,5 121,13 27,6 53,10 78,14 26,4 40,6 45,6 18,0 42,-4 70,-12zm-1393 349l0 55c0,45 5,88 16,131 10,42 25,80 43,114 12,27 30,49 55,65 19,14 42,21 68,21 50,0 90,-28 118,-83 28,-55 42,-134 42,-235 0,-111 -15,-200 -48,-267 -31,-65 -76,-98 -131,-98 -51,0 -90,27 -119,79 -29,52 -44,126 -44,218zm-241 55c0,-126 40,-229 119,-309 80,-79 185,-118 313,-118 122,0 218,36 291,111 73,74 110,171 110,292 0,119 -41,221 -124,305 -82,85 -182,127 -303,127 -120,0 -218,-38 -294,-114 -75,-75 -112,-173 -112,-294zm-734 -408l324 0 0 18 0 22 7 35 28 62 92 219 72 -148 23 -49c7,-13 11,-30 11,-49 0,-34 -12,-71 -35,-110l252 0 -14 18c-11,11 -21,25 -33,41 -7,9 -12,14 -13,16 -7,10 -21,32 -41,65 -20,34 -34,61 -47,83l-76 156c-18,37 -29,68 -33,91l-2 39 0 35 0 128c0,34 2,57 7,69 5,13 18,30 41,53l-331 0c20,-20 33,-37 38,-50 5,-13 7,-37 7,-72l0 -35 0 -95 0 -33 -5 -37 -14 -42 -11 -29 -73 -145 -39 -72c-23,-42 -43,-72 -58,-93 -3,-4 -19,-25 -51,-62l-26 -29zm-366 156l-78 228 166 0 -88 -228zm-371 638c29,-19 49,-34 59,-48 11,-13 24,-39 37,-73l23 -66 158 -448c5,-10 9,-23 14,-40 5,-17 7,-29 7,-38 0,-15 -2,-28 -6,-38 -3,-12 -12,-26 -26,-43l283 0 273 672c15,35 28,59 38,72 10,13 28,30 54,50l-315 0 0 -35c0,-11 -1,-22 -4,-31 -4,-8 -12,-27 -23,-56l-83 -207 -224 0 -71 207c-5,12 -8,22 -10,34 -2,10 -4,19 -4,25 0,20 18,40 52,63l-232 0zm-800 0c24,-19 39,-36 45,-50 6,-13 8,-37 8,-72l0 -549c0,-35 -2,-59 -5,-71 -4,-12 -17,-29 -38,-52l332 0c-21,21 -35,38 -40,52 -5,14 -8,38 -8,71l0 207 238 0 0 -207c0,-37 -3,-61 -7,-72 -4,-12 -18,-29 -41,-51l338 0c-23,23 -37,42 -42,56 -6,14 -9,36 -9,69l0 547c0,40 2,65 5,76 4,4 9,11 17,20 7,8 16,17 25,26l-342 0c25,-22 40,-39 46,-53 7,-14 10,-37 10,-69l0 -259 -238 0 0 259c0,35 3,60 8,72 4,13 18,30 42,50l-344 0zm-523 -638l-78 228 167 0 -89 -228zm-371 638c29,-19 49,-34 60,-48 10,-13 23,-39 36,-73l22 -66 160 -448c4,-10 9,-23 13,-40 5,-17 7,-29 7,-38 0,-15 -2,-28 -5,-38 -4,-12 -13,-26 -26,-43l282 0 274 672c14,35 26,59 37,72 10,13 28,30 54,50l-314 0 0 -35c0,-11 -2,-22 -5,-31 -4,-8 -11,-27 -23,-56l-82 -207 -225 0 -71 207c-5,12 -8,22 -10,34 -2,10 -3,19 -3,25 0,20 17,40 51,63l-232 0zm-591 -37l0 -217c14,35 27,61 39,79 10,18 25,35 42,53 43,43 95,65 157,65 37,0 68,-9 89,-27 22,-19 34,-44 34,-74 0,-32 -12,-61 -34,-86 -21,-26 -64,-58 -126,-96 -52,-34 -86,-55 -98,-64 -13,-9 -29,-25 -47,-45 -34,-39 -51,-87 -51,-143 0,-146 101,-220 305,-220l37 0c11,0 27,2 47,6l91 15 13 1c9,0 17,-1 25,-1 8,-1 22,-4 41,-7l0 221c-19,-51 -46,-91 -85,-120 -37,-28 -82,-42 -132,-42 -71,0 -107,28 -107,84 0,21 4,37 11,49 7,13 18,24 31,34 13,11 36,27 69,48 5,3 12,6 20,12 13,8 28,18 44,28 25,16 45,29 62,41 24,18 45,36 63,56 43,44 64,97 64,161 0,75 -31,135 -91,180 -61,44 -144,66 -248,66l-84 -5c-39,-4 -68,-10 -89,-15 -21,-6 -52,-19 -92,-37z"/>
   <path class="fil6" d="M6220 1415c3,-5 6,-8 7,-11 1,-2 1,-7 1,-14l0 -6 0 -99c0,-8 0,-12 -1,-15 0,-2 -1,-4 -2,-5 -1,-1 -2,-4 -4,-6l61 0c-3,5 -6,8 -7,12 0,3 0,8 0,14l0 105c0,8 0,13 0,15 1,2 3,5 7,10l-62 0zm-17 -157l0 48c-8,-23 -21,-35 -38,-35 -12,0 -21,6 -29,17 -7,12 -11,27 -11,47 0,19 5,34 12,44 8,11 18,17 31,17 15,0 27,-7 39,-22l-3 22 -6 7c-13,10 -29,15 -48,15 -22,0 -39,-7 -52,-22 -14,-13 -21,-32 -21,-55 0,-26 7,-46 21,-61 14,-16 33,-24 55,-24 6,0 11,0 14,1 3,0 6,0 8,1 3,0 6,1 10,1 3,1 6,1 7,1 3,0 8,0 11,-2zm-257 70l0 11c0,9 1,17 3,26 2,8 5,16 8,22 3,5 6,9 11,13 4,3 8,3 14,3 9,0 17,-5 22,-15 6,-12 9,-26 9,-47 0,-21 -4,-39 -10,-52 -6,-12 -15,-19 -26,-19 -9,0 -17,5 -23,16 -6,10 -8,24 -8,42zm-47 11c0,-25 7,-45 23,-60 16,-16 36,-24 61,-24 24,0 43,8 57,22 15,15 22,34 22,58 0,23 -8,42 -25,59 -15,16 -35,25 -59,25 -24,0 -43,-8 -58,-23 -14,-14 -21,-34 -21,-57zm-133 69l0 -43c3,7 5,12 8,16 2,3 4,7 8,9 8,9 19,13 30,13 8,0 14,-1 19,-5 4,-3 6,-9 6,-15 0,-6 -2,-11 -6,-16 -5,-5 -13,-12 -26,-19 -10,-7 -16,-11 -19,-13 -3,-1 -5,-4 -9,-8 -7,-8 -10,-17 -10,-28 0,-29 20,-43 60,-43l7 0c2,0 5,0 10,1l17 3 3 0 4 0c2,0 4,-1 9,-2l0 43c-5,-9 -10,-17 -17,-23 -8,-5 -16,-8 -26,-8 -14,0 -21,5 -21,17 0,3 1,7 2,9 2,3 3,4 6,7 3,2 7,4 14,9 1,1 3,2 3,2 3,2 7,4 9,6 5,3 9,6 12,8 5,3 9,7 13,11 8,9 13,19 13,31 0,15 -6,26 -19,35 -11,9 -28,13 -48,13l-16 -1c-8,0 -14,-1 -18,-2 -4,-2 -10,-4 -18,-7zm-214 7c6,-5 9,-7 10,-10 2,-3 3,-8 3,-15l0 -7 0 -99c0,-7 -1,-11 -2,-14 -1,-3 -4,-6 -8,-11l109 0 0 35c-3,-4 -5,-7 -7,-9 -2,-2 -4,-5 -8,-6 -2,-2 -5,-3 -9,-4 -3,0 -8,-1 -15,-1l-14 0 0 50 7 0c6,0 10,0 13,-1 2,0 5,-2 8,-2 3,-2 5,-4 7,-6 1,-1 3,-4 5,-7l0 48c-5,-7 -10,-11 -13,-13 -4,-2 -10,-2 -18,-2l-9 0 0 59 12 0c14,0 25,-4 35,-9 3,-2 6,-3 9,-6 1,-2 5,-6 8,-11l-8 41 -115 0zm-154 -156l64 0 0 8c0,4 0,9 2,17l29 92 30 -93c1,-5 2,-10 2,-12 0,-2 -1,-4 -1,-5 -1,-1 -3,-4 -7,-7l41 0c-6,4 -9,7 -11,11 -2,3 -3,7 -6,13l-42 132 -41 0 -43 -132c-1,-7 -4,-11 -6,-14 -1,-3 -5,-6 -11,-10zm-61 156c4,-5 6,-8 7,-11 1,-2 2,-7 2,-14l0 -6 0 -99c0,-8 -1,-12 -1,-15 -1,-2 -2,-4 -2,-5 -1,-1 -3,-4 -4,-6l61 0c-4,5 -6,8 -6,12 -1,3 -2,8 -2,14l0 105c0,8 1,13 1,15 1,2 3,5 7,10l-63 0zm-134 -115l0 -41 130 0 0 41c-2,-7 -6,-13 -10,-17 -5,-5 -14,-7 -25,-7l-7 0 0 114c0,7 1,13 2,15 1,2 4,5 8,10l-66 0c4,-5 7,-8 8,-10 1,-2 1,-7 1,-14l0 -8 1 -107 -6 0c-6,0 -11,0 -14,1 -2,1 -6,3 -9,5 -4,3 -7,5 -8,7 -2,3 -4,6 -5,11zm-82 -10l-15 45 32 0 -17 -45zm-73 125c5,-4 10,-7 11,-10 3,-2 5,-8 7,-15l5 -12 31 -88c1,-2 2,-4 3,-8 1,-2 2,-5 2,-7 0,-3 -1,-5 -1,-8 -1,-1 -3,-5 -6,-8l55 0 54 131c3,7 6,13 7,15 2,2 6,5 11,10l-62 0 0 -7c0,-3 0,-5 -1,-6 0,-2 -2,-6 -4,-12l-16 -40 -44 0 -14 40c-1,3 -1,6 -2,7 0,2 -1,4 -1,6 0,3 3,7 10,12l-45 0zm-84 -142l0 57 5 0c20,0 30,-9 30,-30 0,-19 -8,-28 -23,-28 -3,0 -5,1 -6,1 -3,0 -5,0 -6,0zm-57 142c4,-5 7,-8 8,-11 1,-2 1,-7 1,-14l0 -107c0,-7 0,-12 0,-14 -1,-3 -5,-5 -9,-9l22 0 10 0c12,-1 20,-2 24,-2 2,0 7,0 14,-1 7,-1 13,-1 16,-1 34,0 52,11 52,36 0,8 -4,17 -10,23 -5,7 -14,12 -25,14 5,9 9,16 12,21 3,5 8,12 12,19l17 23c4,7 8,11 9,14 3,2 6,4 11,6 -5,2 -8,3 -11,3 -1,1 -5,1 -9,1 -6,0 -12,0 -17,-2 -6,-1 -11,-2 -16,-4 -5,-1 -9,-5 -13,-8 -4,-4 -8,-10 -13,-17l-19 -30 -9 -14 0 49c0,7 0,12 1,14 1,3 5,6 9,11l-67 0zm-130 0c5,-5 9,-7 9,-10 2,-3 2,-8 2,-15l0 -7 0 -99c0,-7 0,-11 -1,-14 -1,-3 -3,-6 -8,-11l109 0 0 35c-3,-4 -5,-7 -7,-9 -2,-2 -4,-5 -7,-6 -3,-2 -6,-3 -9,-4 -4,0 -9,-1 -16,-1l-14 0 0 50 7 0c6,0 11,0 13,-1 3,0 6,-2 8,-2 3,-2 5,-4 7,-6 2,-1 4,-4 5,-7l0 48c-5,-7 -9,-11 -14,-13 -3,-2 -8,-2 -17,-2l-9 0 0 59 12 0c14,0 26,-4 34,-9 5,-2 7,-3 9,-6 3,-2 5,-6 10,-11l-8 41 -115 0zm-142 0c3,-5 7,-7 7,-10 1,-3 2,-8 2,-15l0 -7 0 -100c0,-7 -1,-11 -2,-14 0,-3 -2,-5 -6,-9l28 0 27 0 27 -2 6 0c14,0 27,3 36,11 9,8 13,18 13,31 0,14 -4,26 -15,35 -10,8 -22,13 -38,13 -8,0 -13,0 -17,-2 -4,-1 -7,-4 -11,-7 12,0 20,-4 26,-11 6,-6 9,-15 9,-28 0,-19 -8,-27 -25,-27l-11 0 0 117c0,8 0,13 1,15 1,2 4,5 8,10l-65 0zm-129 -87l0 11c0,9 0,17 3,26 2,8 4,16 8,22 2,5 6,9 10,13 5,3 9,3 14,3 10,0 18,-5 23,-15 6,-12 9,-26 9,-47 0,-21 -4,-39 -10,-52 -6,-12 -15,-19 -26,-19 -10,0 -18,5 -23,16 -6,10 -8,24 -8,42zm-48 11c0,-25 8,-45 24,-60 16,-16 36,-24 61,-24 24,0 43,8 57,22 15,15 22,34 22,58 0,23 -8,42 -25,59 -16,16 -36,25 -59,25 -24,0 -43,-8 -58,-23 -15,-14 -22,-34 -22,-57zm-95 26l7 -37 74 0 -7 37 -74 0zm-130 -37l0 11c0,9 1,17 4,26 2,8 4,16 8,22 2,5 6,9 11,13 4,3 8,3 13,3 10,0 18,-5 24,-15 5,-12 8,-26 8,-47 0,-21 -4,-39 -10,-52 -6,-12 -15,-19 -25,-19 -11,0 -18,5 -24,16 -6,10 -9,24 -9,42zm-47 11c0,-25 8,-45 24,-60 16,-16 36,-24 61,-24 23,0 43,8 57,22 14,15 21,34 21,58 0,23 -7,42 -24,59 -16,16 -36,25 -59,25 -24,0 -43,-8 -58,-23 -15,-14 -22,-34 -22,-57zm-18 -81l0 48c-8,-23 -21,-35 -38,-35 -13,0 -22,6 -29,17 -7,12 -11,27 -11,47 0,19 4,34 12,44 7,11 18,17 31,17 14,0 27,-7 38,-22l-2 22 -7 7c-13,10 -29,15 -48,15 -21,0 -39,-7 -52,-22 -14,-13 -20,-32 -20,-55 0,-26 7,-46 21,-61 14,-16 33,-24 54,-24 6,0 12,0 14,1 4,0 6,0 9,1 3,0 5,1 9,1 3,1 6,1 8,1 3,0 7,0 11,-2zm-345 42l0 -41 131 0 0 41c-2,-7 -6,-13 -10,-17 -5,-5 -14,-7 -25,-7l-7 0 0 114c0,7 0,13 2,15 1,2 4,5 8,10l-66 0c4,-5 7,-8 7,-10 1,-2 2,-7 2,-14l0 -8 1 -107 -6 0c-6,0 -11,0 -14,1 -3,1 -6,3 -10,5 -3,3 -6,5 -7,7 -2,3 -4,6 -6,11zm-66 115c4,-5 5,-8 7,-11 1,-2 1,-7 1,-14l0 -6 0 -99c0,-8 0,-12 -1,-15 -1,-2 -1,-4 -2,-5 -1,-1 -2,-4 -3,-6l60 0c-3,5 -5,8 -6,12 -1,3 -2,8 -2,14l0 105c0,8 1,13 2,15 0,2 3,5 6,10l-62 0zm-109 -144c-4,0 -6,1 -8,3 -1,2 -1,6 -1,12l0 98 0 7c0,3 0,5 2,7 2,3 6,5 11,5 11,0 20,-7 28,-20 9,-14 13,-31 13,-49 0,-19 -4,-34 -13,-46 -8,-11 -19,-17 -32,-17zm-66 144c4,-5 8,-8 8,-11 1,-2 2,-7 2,-14l0 -6 0 -101c0,-7 0,-11 -1,-14 -1,-2 -4,-5 -8,-9 8,0 17,0 28,-1 9,-1 17,-1 22,-1 8,-1 14,-1 19,-1 4,-1 8,-1 12,-1 23,0 42,7 56,20 15,13 22,31 22,52 0,13 -2,26 -8,37 -5,12 -12,23 -21,31 -8,8 -18,14 -29,16 -12,4 -29,5 -52,5l-4 0c-4,0 -9,0 -13,-1l-18 -1 -15 0zm-129 0c5,-5 8,-7 10,-10 1,-3 2,-8 2,-15l0 -7 0 -99c0,-7 -1,-11 -2,-14 -1,-3 -3,-6 -8,-11l109 0 0 35c-2,-4 -5,-7 -7,-9 -1,-2 -4,-5 -7,-6 -3,-2 -6,-3 -9,-4 -4,0 -9,-1 -16,-1l-14 0 0 50 7 0c6,0 11,0 13,-1 3,0 6,-2 9,-2 2,-2 4,-4 6,-6 2,-1 3,-4 5,-7l0 48c-5,-7 -9,-11 -13,-13 -3,-2 -9,-2 -17,-2l-10 0 0 59 12 0c14,0 26,-4 35,-9 4,-2 6,-3 9,-6 2,-2 5,-6 9,-11l-8 41 -115 0zm-95 -142l0 57 5 0c20,0 30,-9 30,-30 0,-19 -8,-28 -23,-28 -3,0 -5,1 -6,1 -3,0 -6,0 -6,0zm-57 142c4,-5 7,-8 8,-11 1,-2 1,-7 1,-14l0 -107c0,-7 0,-12 -1,-14 -1,-3 -4,-5 -8,-9l22 0 10 0c12,-1 20,-2 24,-2 1,0 7,0 14,-1 7,-1 12,-1 16,-1 34,0 51,11 51,36 0,8 -3,17 -9,23 -6,7 -15,12 -25,14 4,9 8,16 12,21 3,5 7,12 12,19l16 23c4,7 8,11 10,14 3,2 6,4 10,6 -4,2 -8,3 -10,3 -2,1 -5,1 -9,1 -6,0 -12,0 -18,-2 -5,-1 -10,-2 -15,-4 -5,-1 -9,-5 -13,-8 -4,-4 -8,-10 -14,-17l-19 -30 -8 -14 0 49c0,7 0,12 1,14 1,3 4,6 8,11l-66 0zm-16 -157l0 48c-8,-23 -21,-35 -38,-35 -12,0 -21,6 -29,17 -7,12 -11,27 -11,47 0,19 5,34 12,44 8,11 18,17 31,17 15,0 27,-7 39,-22l-3 22 -6 7c-13,10 -29,15 -48,15 -22,0 -39,-7 -52,-22 -14,-13 -20,-32 -20,-55 0,-26 6,-46 20,-61 14,-16 33,-24 55,-24 7,0 11,0 14,1 3,0 6,0 8,1 3,0 6,1 10,1 3,1 6,1 7,1 3,0 8,0 11,-2zm-341 157c5,-5 9,-7 10,-10 1,-3 2,-8 2,-15l0 -7 0 -99c0,-7 -1,-11 -1,-14 -1,-3 -4,-6 -8,-11l109 0 0 35c-3,-4 -6,-7 -7,-9 -2,-2 -5,-5 -8,-6 -3,-2 -5,-3 -9,-4 -3,0 -9,-1 -16,-1l-14 0 0 50 7 0c7,0 11,0 14,-1 2,0 5,-2 7,-2 4,-2 6,-4 7,-6 2,-1 4,-4 6,-7l0 48c-6,-7 -10,-11 -13,-13 -4,-2 -10,-2 -18,-2l-10 0 0 59 13 0c14,0 25,-4 35,-9 3,-2 6,-3 8,-6 2,-2 6,-6 9,-11l-8 41 -115 0zm-131 -115l0 -41 130 0 0 41c-2,-7 -6,-13 -9,-17 -7,-5 -14,-7 -26,-7l-6 0 0 114c0,7 0,13 1,15 1,2 4,5 8,10l-66 0c4,-5 7,-8 8,-10 1,-2 1,-7 1,-14l0 -8 1 -107 -5 0c-7,0 -12,0 -14,1 -4,1 -6,3 -10,5 -3,3 -6,5 -8,7 -1,3 -3,6 -5,11zm-82 -10l-16 45 33 0 -17 -45zm-73 125c6,-4 10,-7 12,-10 2,-2 4,-8 7,-15l4 -12 32 -88c1,-2 2,-4 2,-8 1,-2 1,-5 1,-7 0,-3 0,-5 -1,-8 0,-1 -2,-5 -5,-8l56 0 53 131c3,7 6,13 7,15 3,2 6,5 12,10l-62 0 0 -7c0,-3 0,-5 -1,-6 -1,-2 -3,-6 -5,-12l-16 -40 -44 0 -14 40c-1,3 -1,6 -1,7 -1,2 -1,4 -1,6 0,3 3,7 9,12l-45 0zm-107 -115l0 -41 130 0 0 41c-3,-7 -7,-13 -10,-17 -6,-5 -14,-7 -25,-7l-6 0 0 114c0,7 0,13 0,15 1,2 4,5 8,10l-66 0c4,-5 7,-8 9,-10 1,-2 1,-7 1,-14l0 -8 0 -107 -5 0c-7,0 -11,0 -14,1 -3,1 -6,3 -9,5 -4,3 -6,5 -8,7 -2,3 -4,6 -5,11zm-116 108l0 -43c2,7 5,12 7,16 2,3 5,7 8,9 9,9 20,13 31,13 8,0 13,-1 17,-5 5,-3 7,-9 7,-15 0,-6 -2,-11 -7,-16 -4,-5 -12,-12 -24,-19 -11,-7 -17,-11 -19,-13 -3,-1 -6,-4 -9,-8 -7,-8 -11,-17 -11,-28 0,-29 21,-43 61,-43l7 0c1,0 5,0 8,1l19 3 2 0 5 0c1,0 4,-1 8,-2l0 43c-4,-9 -9,-17 -16,-23 -8,-5 -17,-8 -26,-8 -14,0 -21,5 -21,17 0,3 1,7 1,9 2,3 4,4 7,7 2,2 7,4 14,9 0,1 1,2 3,2 3,2 6,4 9,6 5,3 8,6 12,8 4,3 9,7 12,11 9,9 13,19 13,31 0,15 -6,26 -18,35 -12,9 -28,13 -49,13l-16 -1c-7,0 -14,-1 -17,-2 -4,-2 -11,-4 -18,-7zm-93 -43l6 -37 74 0 -7 37 -73 0zm-75 50c4,-5 6,-8 7,-11 1,-2 1,-7 1,-14l0 -6 0 -99c0,-8 0,-12 -1,-15 -1,-2 -1,-4 -2,-5 -1,-1 -2,-4 -3,-6l61 0c-4,5 -6,8 -7,12 -1,3 -2,8 -2,14l0 105c0,8 1,13 2,15 0,2 3,5 6,10l-62 0zm-135 -115l0 -41 131 0 0 41c-3,-7 -6,-13 -11,-17 -5,-5 -14,-7 -24,-7l-7 0 0 114c0,7 1,13 2,15 1,2 3,5 7,10l-66 0c5,-5 7,-8 8,-10 1,-2 2,-7 2,-14l0 -8 1 -107 -6 0c-7,0 -12,0 -14,1 -3,1 -7,3 -10,5 -3,3 -6,5 -8,7 -1,3 -2,6 -5,11zm-103 115c4,-5 8,-7 9,-10 1,-2 1,-8 1,-15l0 -7 0 -100c0,-7 0,-11 0,-14 -1,-3 -3,-6 -7,-10l63 0c-4,5 -7,8 -8,11 0,3 -1,8 -1,13l2 118 14 0c12,0 23,-3 32,-8 4,-2 8,-4 10,-7 3,-3 5,-7 9,-12l-11 41 -113 0zm-163 -156l64 0c-3,4 -6,8 -7,11 0,3 0,7 0,13l0 71c0,8 0,14 1,17 1,5 3,8 6,12 7,7 15,10 25,10 6,0 12,-1 18,-4 7,-3 12,-7 15,-13 3,-6 4,-14 4,-24l0 -69c0,-6 0,-10 -1,-13 0,-3 -3,-6 -7,-11l35 0c-4,4 -7,8 -7,11 -2,3 -2,7 -2,13l0 70c0,11 -1,20 -3,26 -2,6 -6,13 -11,19 -13,14 -31,20 -53,20 -10,0 -19,-1 -27,-3 -9,-3 -17,-7 -24,-12 -7,-7 -11,-12 -14,-18 -2,-6 -3,-16 -3,-32l0 -69c0,-7 0,-12 -1,-14 -1,-3 -4,-6 -8,-11zm-190 156c5,-5 8,-8 8,-11 2,-3 3,-8 3,-14l0 -7 4 -99 0 -3c0,-6 -1,-9 -2,-12 -1,-2 -3,-5 -7,-10l60 0 24 82 27 -82 60 0c-5,4 -7,7 -8,10 -1,2 -2,6 -2,12l0 3 4 106c0,7 1,13 1,14 1,3 4,6 9,11l-65 0c4,-4 7,-7 8,-10 1,-2 1,-6 1,-12l0 -3 -2 -93 -36 118 -18 0 -39 -117 -1 92 0 2c0,8 0,11 1,13 1,2 4,5 8,10l-38 0z"/>
   <path class="fil6" d="M7066 1271c-4,0 -6,1 -7,3 -1,2 -2,6 -2,12l0 98 0 7c0,3 1,5 2,7 2,3 6,5 11,5 12,0 21,-7 29,-20 8,-14 12,-31 12,-49 0,-19 -4,-33 -12,-46 -9,-11 -20,-17 -33,-17zm-66 144c5,-5 7,-8 9,-11 1,-2 2,-7 2,-14l0 -6 0 -101c0,-7 -1,-11 -2,-14 -1,-2 -3,-5 -9,-10 9,0 19,0 28,0 11,-1 19,-1 24,-1 8,-1 14,-1 18,-1 5,-1 8,-1 12,-1 24,0 43,7 57,20 14,13 21,31 21,52 0,13 -3,26 -7,37 -5,12 -12,23 -21,31 -9,8 -19,14 -30,16 -11,4 -28,5 -52,5l-4 0c-5,0 -9,0 -12,-1l-18 -1 -16 0zm-132 -114l0 -42 131 0 0 42c-3,-8 -6,-14 -11,-18 -5,-5 -14,-7 -24,-7l-7 0 0 114c0,7 1,13 2,15 0,2 3,5 7,10l-66 0c4,-5 7,-8 8,-10 1,-2 2,-7 2,-14l0 -8 1 -107 -7 0c-6,0 -11,0 -14,1 -2,1 -6,3 -9,5 -4,3 -6,5 -8,7 -2,3 -3,6 -5,12zm-104 114c5,-5 9,-7 10,-10 0,-2 1,-8 1,-15l0 -7 0 -100c0,-7 0,-11 -1,-14 0,-3 -3,-6 -7,-10l64 0c-4,5 -7,8 -8,11 -1,3 -1,8 -1,13l1 118 14 0c12,0 24,-3 33,-8 4,-2 7,-4 10,-7 3,-3 5,-7 9,-12l-11 41 -114 0zm-229 -156l63 0 -1 4 0 4 2 6 5 13 19 43 14 -29 5 -10c1,-3 2,-5 2,-10 0,-6 -3,-14 -7,-21l49 0 -3 4c-2,2 -4,4 -6,8 -2,2 -2,2 -3,2 -1,3 -4,7 -8,14 -3,6 -7,12 -8,16l-16 31c-4,7 -5,13 -6,17l-1 8 0 7 0 24c0,7 1,12 2,14 1,3 3,6 7,11l-64 0c3,-5 6,-8 7,-10 1,-2 2,-8 2,-15l0 -6 0 -19 0 -6 -1 -7 -3 -9 -2 -5 -14 -29 -8 -14c-5,-8 -8,-14 -12,-18 0,-1 -3,-5 -9,-12l-5 -6zm-121 42l0 -42 131 0 0 42c-3,-8 -6,-14 -10,-18 -6,-5 -14,-7 -25,-7l-7 0 0 114c0,7 1,13 2,15 1,2 3,5 8,10l-67 0c5,-5 7,-8 8,-10 1,-2 2,-7 2,-14l0 -8 1 -107 -6 0c-6,0 -12,0 -14,1 -3,1 -6,3 -10,5 -3,3 -6,5 -8,7 -1,3 -3,6 -5,12zm-122 114c5,-5 8,-7 10,-10 1,-3 1,-8 1,-15l0 -7 0 -99c0,-7 0,-11 -1,-14 -1,-3 -4,-6 -8,-11l109 0 0 35c-3,-4 -5,-7 -7,-9 -2,-2 -4,-5 -7,-6 -3,-2 -6,-3 -10,-4 -2,0 -8,-1 -15,-1l-14 0 0 50 7 0c6,0 10,0 13,-1 3,0 6,-2 8,-2 3,-2 5,-4 7,-6 1,-1 3,-4 5,-7l0 48c-5,-7 -10,-11 -13,-13 -4,-2 -10,-2 -18,-2l-9 0 0 59 12 0c14,0 25,-4 35,-9 3,-2 6,-3 8,-6 2,-2 6,-6 9,-11l-8 41 -114 0z"/>
  </g>
 </g>
</svg>
